<svg id="Layer_1" data-name="Layer 1" xmlns="http://www.w3.org/2000/svg" xmlns:xlink="http://www.w3.org/1999/xlink" viewBox="0 0 442.96 460.11"><defs><style>.cls-1{fill:url(#linear-gradient);}.cls-2{fill:url(#linear-gradient-2);}</style><linearGradient id="linear-gradient" x1="558.04" y1="500.13" x2="699.84" y2="337.47" gradientUnits="userSpaceOnUse"><stop offset="0" stop-color="#ec7d23"/><stop offset="1" stop-color="#faa53b"/></linearGradient><linearGradient id="linear-gradient-2" x1="345.94" y1="385.17" x2="561.73" y2="385.17" gradientUnits="userSpaceOnUse"><stop offset="0" stop-color="#076e6b"/><stop offset="1" stop-color="#09b399"/></linearGradient></defs><title>logo orginal</title><path class="cls-1" d="M626,469.89l-89.21-81.54L548,338.08,715,489.83m0,3.77L499.25,559.67l11.38-50.86L626,473.66" transform="translate(-318.46 -274.74)"/><path class="cls-2" d="M435,363.79l89.34,80.95L513,495.61l-167-151.76m0-3.05,215.79-66.06L550.48,325,435,360.74" transform="translate(-318.46 -274.74)"/><path d="M502.91,713.79A11.83,11.83,0,0,0,499.8,711a7.37,7.37,0,0,0-3.94-1.05,8.19,8.19,0,0,0-3.69.84,9.36,9.36,0,0,0-2.95,2.29,10.82,10.82,0,0,0-2,3.36,11.54,11.54,0,0,0-.72,4.09,11.71,11.71,0,0,0,2.67,7.4,9.69,9.69,0,0,0,2.94,2.35,7.9,7.9,0,0,0,7.47-.12,10,10,0,0,0,3.09-2.64h4.51a13.67,13.67,0,0,1-4.79,5.41,12,12,0,0,1-6.67,1.93,11.42,11.42,0,0,1-5-1.14,13,13,0,0,1-4.11-3.14,15.42,15.42,0,0,1-2.76-4.58,15.78,15.78,0,0,1,0-11.11,14.39,14.39,0,0,1,2.78-4.49,13.2,13.2,0,0,1,4.12-3,11.69,11.69,0,0,1,5.05-1.11,12.07,12.07,0,0,1,4,.7,13.9,13.9,0,0,1,3.66,2,11.59,11.59,0,0,1,2.19,2.18,18.65,18.65,0,0,1,1.65,2.71Z" transform="translate(-318.46 -274.74)"/><path d="M532.8,734.85a11.85,11.85,0,0,1-5.11-1.13,13.24,13.24,0,0,1-4.19-3.07,14.44,14.44,0,0,1-2.83-4.55,14.82,14.82,0,0,1-1-5.54,15.23,15.23,0,0,1,1-5.64,14.42,14.42,0,0,1,2.83-4.57,13.18,13.18,0,0,1,4.19-3.05,12.35,12.35,0,0,1,10.28,0,13.13,13.13,0,0,1,4.19,3.07A14.21,14.21,0,0,1,545,715a15.4,15.4,0,0,1,1,5.64,14.77,14.77,0,0,1-3.9,10.07,13.61,13.61,0,0,1-4.19,3.05A11.79,11.79,0,0,1,532.8,734.85Zm0-25a8.47,8.47,0,0,0-5.18,1.64,10.36,10.36,0,0,0-3.41,4.63,13.43,13.43,0,0,0-.61,2.12,11.75,11.75,0,0,0-.23,2.31,11.33,11.33,0,0,0,.23,2.23,15.85,15.85,0,0,0,.61,2.2,10.23,10.23,0,0,0,3.41,4.57,9.06,9.06,0,0,0,10.63-.21,10.52,10.52,0,0,0,3.39-5,12.35,12.35,0,0,0-.11-7.87,10.66,10.66,0,0,0-1.95-3.42,9.42,9.42,0,0,0-3-2.33A8.28,8.28,0,0,0,532.8,709.86Z" transform="translate(-318.46 -274.74)"/><path d="M577.15,711.54a16.65,16.65,0,0,1,2,4.32,17,17,0,0,1,.69,4.77A19.39,19.39,0,0,1,579,726a14.66,14.66,0,0,1-1,2.56,8.65,8.65,0,0,1-1.45,2.11,11.8,11.8,0,0,1-4.69,3.26,16.22,16.22,0,0,1-5.47.9H558V731h8.35a11.17,11.17,0,0,0,4-.69,8.15,8.15,0,0,0,3.06-2,9,9,0,0,0,1.92-3.27,13.65,13.65,0,0,0,.66-4.42,12.19,12.19,0,0,0-.21-2.23,11.57,11.57,0,0,0-.59-2.12,8.89,8.89,0,0,0-8.77-6.19H558v-3.86h8.45a15.08,15.08,0,0,1,6,1.2A10.49,10.49,0,0,1,577.15,711.54Z" transform="translate(-318.46 -274.74)"/><path d="M591.82,706.27h14v3.86H595.62v8.4h6v3.82h-6V731h10.24v3.82h-14Z" transform="translate(-318.46 -274.74)"/><path d="M333.12,629.28h35.63a49.6,49.6,0,0,0,15.73-2.57,84.29,84.29,0,0,0,15-6.77,111.86,111.86,0,0,0,14-9.54q6.7-5.32,12.88-10.87c1.75-1.77,3.49-2.67,5.24-2.67a6.56,6.56,0,0,1,5.25,2.67,10,10,0,0,1,2.16,6.49,8.76,8.76,0,0,1-1.24,4.67,16.15,16.15,0,0,1-2.93,3.53q-4,3.81-7.71,7.15t-7.4,6.19q-3.71,2.87-7.64,5.53t-8.4,5.34q4.47,2.67,8.4,5.34t7.64,5.53q3.7,2.87,7.4,6.2t7.71,7.15a16.1,16.1,0,0,1,2.93,3.52,8.78,8.78,0,0,1,1.24,4.67,10,10,0,0,1-2.16,6.49,6.54,6.54,0,0,1-5.25,2.67c-1.75,0-3.49-.89-5.24-2.67q-6.33-5.73-13-11.06a115.67,115.67,0,0,0-14-9.54,77.08,77.08,0,0,0-15-6.67,51.25,51.25,0,0,0-15.73-2.48H333.12v23.26a10,10,0,0,1-2.16,6.49,6.4,6.4,0,0,1-5.09,2.67,6.54,6.54,0,0,1-5.25-2.67,10,10,0,0,1-2.16-6.49V606a10,10,0,0,1,2.16-6.49,6.43,6.43,0,0,1,5.09-2.67,6.56,6.56,0,0,1,5.25,2.67,10,10,0,0,1,2.16,6.49Z" transform="translate(-318.46 -274.74)"/><path d="M467.15,677.33a6.49,6.49,0,0,1-10.49,0,10,10,0,0,1-2.16-6.49V606a10,10,0,0,1,2.16-6.49,6.49,6.49,0,0,1,10.49,0,10.08,10.08,0,0,1,2.16,6.49v64.82A10,10,0,0,1,467.15,677.33Z" transform="translate(-318.46 -274.74)"/><path d="M497.84,676.57c-1.55,2.28-3.45,3.43-5.71,3.43a6.52,6.52,0,0,1-5.24-2.67,10,10,0,0,1-2.16-6.49,9.09,9.09,0,0,1,1.54-5.52L523.75,603a21.37,21.37,0,0,1,6.94-7.15,16.84,16.84,0,0,1,18-.29,19.46,19.46,0,0,1,6.78,6.86l37.48,62a13.59,13.59,0,0,1,1.54,3,9.87,9.87,0,0,1,.62,3.52,10,10,0,0,1-2.16,6.49,6.52,6.52,0,0,1-11.1-1L546,617.08a38.17,38.17,0,0,0-2.7-3.34,3.94,3.94,0,0,0-6.63,0,23.42,23.42,0,0,0-2.55,3.34Z" transform="translate(-318.46 -274.74)"/><path d="M731.19,670.84a10,10,0,0,1-2.16,6.49,6.52,6.52,0,0,1-5.24,2.67,5.13,5.13,0,0,1-2.77-.77,11.11,11.11,0,0,1-2.32-1.9,17.72,17.72,0,0,1-1.39-1.91,66.75,66.75,0,0,0-13-15.25,51.2,51.2,0,0,0-14.11-8.39,55.8,55.8,0,0,0-15.66-3.53q-8.25-.66-17.66-.67H625.39v23.26a9.77,9.77,0,0,1-2.24,6.49,6.41,6.41,0,0,1-10.41,0,10,10,0,0,1-2.16-6.49v-49a29.45,29.45,0,0,1,1.7-10.29,27.48,27.48,0,0,1,4.32-7.82,19.4,19.4,0,0,1,6-5.05,14.3,14.3,0,0,1,6.79-1.82h80.51a17.42,17.42,0,0,1,8.17,2,22.37,22.37,0,0,1,6.79,5.43,26.36,26.36,0,0,1,4.63,8,28.33,28.33,0,0,1,1.69,9.91,10,10,0,0,1-2.16,6.49,6.48,6.48,0,0,1-10.48,0,10,10,0,0,1-2.16-6.49,7.1,7.1,0,0,0-1.62-4.76,6.39,6.39,0,0,0-3.78-2.29H630.17a4.35,4.35,0,0,0-3.24,1.24,5.45,5.45,0,0,0-1.54,3v9.91h31.46a143.91,143.91,0,0,1,24.53,1.91,74.79,74.79,0,0,1,19.82,6.19,58.76,58.76,0,0,1,15.88,11.25,73.9,73.9,0,0,1,12.57,17.07A9.58,9.58,0,0,1,731.19,670.84Z" transform="translate(-318.46 -274.74)"/><path d="M759.26,677.33a6.48,6.48,0,0,1-10.48,0,9.93,9.93,0,0,1-2.16-6.49V606a10,10,0,0,1,2.16-6.49,6.48,6.48,0,0,1,10.48,0,10,10,0,0,1,2.16,6.49v64.82A10,10,0,0,1,759.26,677.33Z" transform="translate(-318.46 -274.74)"/><rect x="87.04" y="441.78" width="63.7" height="5.51"/><rect x="303.31" y="441.78" width="63.7" height="5.51"/></svg>